<mxfile host="app.diagrams.net" modified="2023-06-01T09:22:03.248Z" agent="Mozilla/5.0 (Windows NT 10.0; Win64; x64) AppleWebKit/537.36 (KHTML, like Gecko) Chrome/115.0.0.0 Safari/537.36 Edg/115.0.0.0" etag="f9c3qtu_79Nv86PGUNMD" version="21.3.6" type="github">
  <diagram name="第 1 页" id="PsfgQJj6eO9L43K2dg6k">
    <mxGraphModel dx="1929" dy="1223" grid="1" gridSize="10" guides="1" tooltips="1" connect="1" arrows="1" fold="1" page="1" pageScale="1" pageWidth="827" pageHeight="1169" math="0" shadow="0">
      <root>
        <mxCell id="0" />
        <mxCell id="1" parent="0" />
        <mxCell id="Dp6s-hYy4wlyeIpTVWs1-1" value="&lt;font&gt;基于HTM模型的车流量预测系统&lt;/font&gt;&lt;span style=&quot;font-size:14.0pt;line-height:150%;&lt;br/&gt;font-family:黑体;mso-bidi-font-family:Arial;color:#333333;background:white;&lt;br/&gt;mso-font-kerning:1.0pt;mso-ansi-language:EN-US;mso-fareast-language:ZH-CN;&lt;br/&gt;mso-bidi-language:AR-SA&quot;&gt;&lt;/span&gt;" style="rounded=0;whiteSpace=wrap;html=1;" vertex="1" parent="1">
          <mxGeometry x="-170" y="60" width="360" height="30" as="geometry" />
        </mxCell>
        <mxCell id="Dp6s-hYy4wlyeIpTVWs1-25" value="" style="edgeStyle=orthogonalEdgeStyle;rounded=0;orthogonalLoop=1;jettySize=auto;html=1;" edge="1" parent="1" source="Dp6s-hYy4wlyeIpTVWs1-3" target="Dp6s-hYy4wlyeIpTVWs1-10">
          <mxGeometry relative="1" as="geometry" />
        </mxCell>
        <mxCell id="Dp6s-hYy4wlyeIpTVWs1-3" value="数据处理" style="rounded=1;whiteSpace=wrap;html=1;" vertex="1" parent="1">
          <mxGeometry x="-520" y="230" width="120" height="60" as="geometry" />
        </mxCell>
        <mxCell id="Dp6s-hYy4wlyeIpTVWs1-31" value="" style="edgeStyle=orthogonalEdgeStyle;rounded=0;orthogonalLoop=1;jettySize=auto;html=1;" edge="1" parent="1" source="Dp6s-hYy4wlyeIpTVWs1-4" target="Dp6s-hYy4wlyeIpTVWs1-12">
          <mxGeometry relative="1" as="geometry">
            <Array as="points">
              <mxPoint x="-210" y="320" />
              <mxPoint x="-160" y="320" />
            </Array>
          </mxGeometry>
        </mxCell>
        <mxCell id="Dp6s-hYy4wlyeIpTVWs1-4" value="数据清洗" style="rounded=1;whiteSpace=wrap;html=1;" vertex="1" parent="1">
          <mxGeometry x="-270" y="230" width="120" height="60" as="geometry" />
        </mxCell>
        <mxCell id="Dp6s-hYy4wlyeIpTVWs1-38" value="" style="edgeStyle=orthogonalEdgeStyle;rounded=0;orthogonalLoop=1;jettySize=auto;html=1;" edge="1" parent="1" source="Dp6s-hYy4wlyeIpTVWs1-5" target="Dp6s-hYy4wlyeIpTVWs1-17">
          <mxGeometry relative="1" as="geometry">
            <Array as="points">
              <mxPoint y="320" />
              <mxPoint x="50" y="320" />
            </Array>
          </mxGeometry>
        </mxCell>
        <mxCell id="Dp6s-hYy4wlyeIpTVWs1-5" value="模型训练" style="rounded=1;whiteSpace=wrap;html=1;" vertex="1" parent="1">
          <mxGeometry x="-60" y="230" width="120" height="60" as="geometry" />
        </mxCell>
        <mxCell id="Dp6s-hYy4wlyeIpTVWs1-44" value="" style="edgeStyle=orthogonalEdgeStyle;rounded=0;orthogonalLoop=1;jettySize=auto;html=1;" edge="1" parent="1" source="Dp6s-hYy4wlyeIpTVWs1-6" target="Dp6s-hYy4wlyeIpTVWs1-43">
          <mxGeometry relative="1" as="geometry">
            <Array as="points">
              <mxPoint x="230" y="320" />
              <mxPoint x="290" y="320" />
            </Array>
          </mxGeometry>
        </mxCell>
        <mxCell id="Dp6s-hYy4wlyeIpTVWs1-6" value="数据预测" style="rounded=1;whiteSpace=wrap;html=1;" vertex="1" parent="1">
          <mxGeometry x="170" y="230" width="120" height="60" as="geometry" />
        </mxCell>
        <mxCell id="Dp6s-hYy4wlyeIpTVWs1-48" value="" style="edgeStyle=orthogonalEdgeStyle;rounded=0;orthogonalLoop=1;jettySize=auto;html=1;" edge="1" parent="1" source="Dp6s-hYy4wlyeIpTVWs1-7" target="Dp6s-hYy4wlyeIpTVWs1-47">
          <mxGeometry relative="1" as="geometry">
            <Array as="points">
              <mxPoint x="440" y="320" />
              <mxPoint x="490" y="320" />
            </Array>
          </mxGeometry>
        </mxCell>
        <mxCell id="Dp6s-hYy4wlyeIpTVWs1-7" value="可视化结果展示" style="rounded=1;whiteSpace=wrap;html=1;" vertex="1" parent="1">
          <mxGeometry x="380" y="230" width="120" height="60" as="geometry" />
        </mxCell>
        <mxCell id="Dp6s-hYy4wlyeIpTVWs1-8" value="标准化" style="rounded=1;whiteSpace=wrap;html=1;direction=south;" vertex="1" parent="1">
          <mxGeometry x="-400" y="360" width="60" height="120" as="geometry" />
        </mxCell>
        <mxCell id="Dp6s-hYy4wlyeIpTVWs1-9" value="缺失值处理" style="rounded=1;whiteSpace=wrap;html=1;direction=south;" vertex="1" parent="1">
          <mxGeometry x="-580" y="360" width="60" height="120" as="geometry" />
        </mxCell>
        <mxCell id="Dp6s-hYy4wlyeIpTVWs1-10" value="归一化" style="rounded=1;whiteSpace=wrap;html=1;direction=south;" vertex="1" parent="1">
          <mxGeometry x="-490" y="360" width="60" height="120" as="geometry" />
        </mxCell>
        <mxCell id="Dp6s-hYy4wlyeIpTVWs1-11" value="swarm&lt;br&gt;清洗数据" style="rounded=1;whiteSpace=wrap;html=1;direction=south;" vertex="1" parent="1">
          <mxGeometry x="-290" y="360" width="60" height="120" as="geometry" />
        </mxCell>
        <mxCell id="Dp6s-hYy4wlyeIpTVWs1-12" value="模型参数选择" style="rounded=1;whiteSpace=wrap;html=1;direction=south;" vertex="1" parent="1">
          <mxGeometry x="-190" y="360" width="60" height="120" as="geometry" />
        </mxCell>
        <mxCell id="Dp6s-hYy4wlyeIpTVWs1-16" value="模型训练" style="rounded=1;whiteSpace=wrap;html=1;direction=south;" vertex="1" parent="1">
          <mxGeometry x="-80" y="360" width="60" height="120" as="geometry" />
        </mxCell>
        <mxCell id="Dp6s-hYy4wlyeIpTVWs1-17" value="模型保存" style="rounded=1;whiteSpace=wrap;html=1;direction=south;" vertex="1" parent="1">
          <mxGeometry x="20" y="360" width="60" height="120" as="geometry" />
        </mxCell>
        <mxCell id="Dp6s-hYy4wlyeIpTVWs1-20" value="" style="endArrow=classic;html=1;rounded=0;exitX=0.128;exitY=0.986;exitDx=0;exitDy=0;exitPerimeter=0;entryX=0.5;entryY=0;entryDx=0;entryDy=0;" edge="1" parent="1" source="Dp6s-hYy4wlyeIpTVWs1-1" target="Dp6s-hYy4wlyeIpTVWs1-3">
          <mxGeometry width="50" height="50" relative="1" as="geometry">
            <mxPoint x="-260" y="410" as="sourcePoint" />
            <mxPoint x="-210" y="360" as="targetPoint" />
          </mxGeometry>
        </mxCell>
        <mxCell id="Dp6s-hYy4wlyeIpTVWs1-21" value="" style="endArrow=classic;html=1;rounded=0;exitX=0.323;exitY=1.081;exitDx=0;exitDy=0;exitPerimeter=0;entryX=0.5;entryY=0;entryDx=0;entryDy=0;" edge="1" parent="1" source="Dp6s-hYy4wlyeIpTVWs1-1" target="Dp6s-hYy4wlyeIpTVWs1-4">
          <mxGeometry width="50" height="50" relative="1" as="geometry">
            <mxPoint x="-260" y="410" as="sourcePoint" />
            <mxPoint x="-210" y="360" as="targetPoint" />
          </mxGeometry>
        </mxCell>
        <mxCell id="Dp6s-hYy4wlyeIpTVWs1-22" value="" style="endArrow=classic;html=1;rounded=0;exitX=0.474;exitY=1.081;exitDx=0;exitDy=0;exitPerimeter=0;entryX=0.5;entryY=0;entryDx=0;entryDy=0;" edge="1" parent="1" source="Dp6s-hYy4wlyeIpTVWs1-1" target="Dp6s-hYy4wlyeIpTVWs1-5">
          <mxGeometry width="50" height="50" relative="1" as="geometry">
            <mxPoint x="50" y="410" as="sourcePoint" />
            <mxPoint x="100" y="360" as="targetPoint" />
          </mxGeometry>
        </mxCell>
        <mxCell id="Dp6s-hYy4wlyeIpTVWs1-23" value="" style="endArrow=classic;html=1;rounded=0;exitX=0.649;exitY=1.033;exitDx=0;exitDy=0;exitPerimeter=0;entryX=0.5;entryY=0;entryDx=0;entryDy=0;" edge="1" parent="1" source="Dp6s-hYy4wlyeIpTVWs1-1" target="Dp6s-hYy4wlyeIpTVWs1-6">
          <mxGeometry width="50" height="50" relative="1" as="geometry">
            <mxPoint x="50" y="410" as="sourcePoint" />
            <mxPoint x="100" y="360" as="targetPoint" />
          </mxGeometry>
        </mxCell>
        <mxCell id="Dp6s-hYy4wlyeIpTVWs1-24" value="" style="endArrow=classic;html=1;rounded=0;exitX=0.859;exitY=0.986;exitDx=0;exitDy=0;exitPerimeter=0;entryX=0.5;entryY=0;entryDx=0;entryDy=0;" edge="1" parent="1" source="Dp6s-hYy4wlyeIpTVWs1-1" target="Dp6s-hYy4wlyeIpTVWs1-7">
          <mxGeometry width="50" height="50" relative="1" as="geometry">
            <mxPoint x="50" y="410" as="sourcePoint" />
            <mxPoint x="100" y="360" as="targetPoint" />
          </mxGeometry>
        </mxCell>
        <mxCell id="Dp6s-hYy4wlyeIpTVWs1-26" value="" style="endArrow=classic;html=1;rounded=0;entryX=0;entryY=0.5;entryDx=0;entryDy=0;" edge="1" parent="1" target="Dp6s-hYy4wlyeIpTVWs1-8">
          <mxGeometry width="50" height="50" relative="1" as="geometry">
            <mxPoint x="-460" y="320" as="sourcePoint" />
            <mxPoint x="-290" y="320" as="targetPoint" />
            <Array as="points">
              <mxPoint x="-370" y="320" />
            </Array>
          </mxGeometry>
        </mxCell>
        <mxCell id="Dp6s-hYy4wlyeIpTVWs1-27" value="" style="endArrow=classic;html=1;rounded=0;entryX=0;entryY=0.5;entryDx=0;entryDy=0;" edge="1" parent="1" target="Dp6s-hYy4wlyeIpTVWs1-9">
          <mxGeometry width="50" height="50" relative="1" as="geometry">
            <mxPoint x="-460" y="320" as="sourcePoint" />
            <mxPoint x="-290" y="320" as="targetPoint" />
            <Array as="points">
              <mxPoint x="-550" y="320" />
            </Array>
          </mxGeometry>
        </mxCell>
        <mxCell id="Dp6s-hYy4wlyeIpTVWs1-32" value="" style="endArrow=classic;html=1;rounded=0;entryX=0;entryY=0.5;entryDx=0;entryDy=0;" edge="1" parent="1" target="Dp6s-hYy4wlyeIpTVWs1-11">
          <mxGeometry width="50" height="50" relative="1" as="geometry">
            <mxPoint x="-210" y="320" as="sourcePoint" />
            <mxPoint x="-200" y="390" as="targetPoint" />
            <Array as="points">
              <mxPoint x="-260" y="320" />
            </Array>
          </mxGeometry>
        </mxCell>
        <mxCell id="Dp6s-hYy4wlyeIpTVWs1-39" value="" style="endArrow=classic;html=1;rounded=0;entryX=0;entryY=0.5;entryDx=0;entryDy=0;" edge="1" parent="1" target="Dp6s-hYy4wlyeIpTVWs1-16">
          <mxGeometry width="50" height="50" relative="1" as="geometry">
            <mxPoint y="320" as="sourcePoint" />
            <mxPoint x="190" y="410" as="targetPoint" />
            <Array as="points">
              <mxPoint x="-50" y="320" />
            </Array>
          </mxGeometry>
        </mxCell>
        <mxCell id="Dp6s-hYy4wlyeIpTVWs1-42" value="LSTM比较模型" style="rounded=1;whiteSpace=wrap;html=1;direction=south;" vertex="1" parent="1">
          <mxGeometry x="150" y="360" width="60" height="120" as="geometry" />
        </mxCell>
        <mxCell id="Dp6s-hYy4wlyeIpTVWs1-43" value="HTM模型" style="rounded=1;whiteSpace=wrap;html=1;direction=south;" vertex="1" parent="1">
          <mxGeometry x="260" y="360" width="60" height="120" as="geometry" />
        </mxCell>
        <mxCell id="Dp6s-hYy4wlyeIpTVWs1-45" value="" style="endArrow=classic;html=1;rounded=0;entryX=0;entryY=0.5;entryDx=0;entryDy=0;" edge="1" parent="1" target="Dp6s-hYy4wlyeIpTVWs1-42">
          <mxGeometry width="50" height="50" relative="1" as="geometry">
            <mxPoint x="230" y="320" as="sourcePoint" />
            <mxPoint x="190" y="410" as="targetPoint" />
            <Array as="points">
              <mxPoint x="180" y="320" />
            </Array>
          </mxGeometry>
        </mxCell>
        <mxCell id="Dp6s-hYy4wlyeIpTVWs1-46" value="数据库&lt;br&gt;记录" style="rounded=1;whiteSpace=wrap;html=1;direction=south;" vertex="1" parent="1">
          <mxGeometry x="353" y="360" width="60" height="120" as="geometry" />
        </mxCell>
        <mxCell id="Dp6s-hYy4wlyeIpTVWs1-47" value="web端实现可视化" style="rounded=1;whiteSpace=wrap;html=1;direction=south;" vertex="1" parent="1">
          <mxGeometry x="460" y="360" width="60" height="120" as="geometry" />
        </mxCell>
        <mxCell id="Dp6s-hYy4wlyeIpTVWs1-49" value="" style="endArrow=classic;html=1;rounded=0;entryX=0;entryY=0.5;entryDx=0;entryDy=0;" edge="1" parent="1" target="Dp6s-hYy4wlyeIpTVWs1-46">
          <mxGeometry width="50" height="50" relative="1" as="geometry">
            <mxPoint x="440" y="320" as="sourcePoint" />
            <mxPoint x="400" y="410" as="targetPoint" />
            <Array as="points">
              <mxPoint x="383" y="320" />
            </Array>
          </mxGeometry>
        </mxCell>
        <mxCell id="Dp6s-hYy4wlyeIpTVWs1-50" value="" style="endArrow=classic;html=1;rounded=0;exitX=1;exitY=0.5;exitDx=0;exitDy=0;entryX=0;entryY=0.5;entryDx=0;entryDy=0;" edge="1" parent="1" source="Dp6s-hYy4wlyeIpTVWs1-3" target="Dp6s-hYy4wlyeIpTVWs1-4">
          <mxGeometry width="50" height="50" relative="1" as="geometry">
            <mxPoint x="-350" y="290" as="sourcePoint" />
            <mxPoint x="-20" y="340" as="targetPoint" />
          </mxGeometry>
        </mxCell>
        <mxCell id="Dp6s-hYy4wlyeIpTVWs1-51" value="" style="endArrow=classic;html=1;rounded=0;exitX=1;exitY=0.5;exitDx=0;exitDy=0;entryX=0;entryY=0.5;entryDx=0;entryDy=0;" edge="1" parent="1" source="Dp6s-hYy4wlyeIpTVWs1-4" target="Dp6s-hYy4wlyeIpTVWs1-5">
          <mxGeometry width="50" height="50" relative="1" as="geometry">
            <mxPoint x="-70" y="390" as="sourcePoint" />
            <mxPoint x="-20" y="340" as="targetPoint" />
          </mxGeometry>
        </mxCell>
        <mxCell id="Dp6s-hYy4wlyeIpTVWs1-52" value="" style="endArrow=classic;html=1;rounded=0;exitX=1;exitY=0.5;exitDx=0;exitDy=0;entryX=0;entryY=0.5;entryDx=0;entryDy=0;" edge="1" parent="1" source="Dp6s-hYy4wlyeIpTVWs1-5" target="Dp6s-hYy4wlyeIpTVWs1-6">
          <mxGeometry width="50" height="50" relative="1" as="geometry">
            <mxPoint x="-70" y="390" as="sourcePoint" />
            <mxPoint x="-20" y="340" as="targetPoint" />
          </mxGeometry>
        </mxCell>
        <mxCell id="Dp6s-hYy4wlyeIpTVWs1-53" value="" style="endArrow=classic;html=1;rounded=0;exitX=1;exitY=0.5;exitDx=0;exitDy=0;entryX=0;entryY=0.5;entryDx=0;entryDy=0;" edge="1" parent="1" source="Dp6s-hYy4wlyeIpTVWs1-6" target="Dp6s-hYy4wlyeIpTVWs1-7">
          <mxGeometry width="50" height="50" relative="1" as="geometry">
            <mxPoint x="-70" y="390" as="sourcePoint" />
            <mxPoint x="-20" y="340" as="targetPoint" />
          </mxGeometry>
        </mxCell>
      </root>
    </mxGraphModel>
  </diagram>
</mxfile>
